<svg width="82" height="67" viewBox="0 0 82 67" fill="none" xmlns="http://www.w3.org/2000/svg">
<path d="M58.168 30.7076C57.6583 29.5464 56.7665 28.1271 54.9827 26.9659C53.9634 26.3207 50.0136 25.8046 49.8861 29.4174C49.8861 29.4174 48.2298 29.6754 48.3572 30.8366C48.3572 30.8366 47.3379 34.3203 52.1796 33.9333C52.1796 33.9333 53.0715 40.5136 53.8359 41.9329C53.8359 41.9329 54.2182 43.2231 54.3456 44.5134H56.3842L56.5116 41.9329C56.5116 41.9329 57.6583 42.707 58.5502 44.5134H61.4807C61.3533 43.4812 61.2259 42.578 60.9711 41.9329C60.9711 41.9329 65.3031 41.9329 66.8321 39.9975C66.8321 39.9975 68.1062 42.449 69.6352 42.578V44.6424H71.6738C71.8012 44.2553 71.8012 43.8682 71.9286 43.2231C71.9286 43.2231 72.6931 43.6102 73.0753 44.6424H74.8591C74.6043 43.7392 72.3108 35.3525 71.5464 34.7074C71.5464 34.7074 72.6931 34.5784 73.0753 35.9977C73.0753 35.9977 73.7124 38.9653 74.9865 38.8362C74.9865 38.8362 75.8784 36.9009 74.3495 34.4494C74.3495 34.4494 73.7124 32.643 70.3996 32.9011L60.8437 32.643C59.5695 32.385 58.6776 31.6108 58.168 30.7076Z" fill="#124C5F"/>
<path d="M46.5735 20.7724C47.338 19.7402 47.2106 18.1919 46.1913 17.2887C45.1719 16.5145 43.643 16.6436 42.7511 17.6758C40.3303 20.7724 35.9982 21.2885 32.9403 19.9983L31.2839 24.6432C36.5079 26.7077 42.8785 25.6755 46.5735 20.7724Z" fill="#124C5F"/>
<path d="M24.9133 12.6439C28.3613 12.6439 31.1565 9.81337 31.1565 6.32172C31.1565 2.83006 28.3613 -0.000488281 24.9133 -0.000488281C21.4652 -0.000488281 18.67 2.83006 18.67 6.32172C18.67 9.81337 21.4652 12.6439 24.9133 12.6439Z" fill="#124C5F"/>
<path d="M28.6083 45.9327L23.257 43.7393L26.4423 34.5784C19.3072 30.5786 16.7589 24.2564 16.6315 23.8693C15.867 21.9339 16.7589 19.8695 18.6701 19.0953C20.5813 18.3212 22.6199 19.2243 23.3844 21.1597C23.5118 21.4178 25.0408 24.7725 28.9906 27.482L31.4114 20.7727C31.6662 19.9985 31.5388 19.2243 31.0292 18.5792C26.4423 13.4182 21.091 11.4828 15.23 13.2892C13.5736 13.8053 12.4269 15.0955 12.0446 16.7729L6.94811 43.6102C6.94811 43.7393 6.94811 43.7393 6.94811 43.8683C6.94811 43.9973 6.94811 44.2554 6.94811 44.3844L7.20294 56.6419L4.39985 55.9967C2.48866 55.6096 0.450051 56.8999 0.0678124 58.8353C-0.314427 60.7707 0.959703 62.8351 2.8709 63.2222L10.1334 64.7705C11.2802 65.0285 12.2995 64.7705 13.1913 63.9963C14.0832 63.2222 14.5929 62.19 14.4655 61.0287L14.2107 48.1261L23.5118 51.8679V63.0931C23.5118 65.1576 25.1682 66.8349 27.2068 66.8349C29.2454 66.8349 30.9018 65.1576 30.9018 63.0931V49.4164C31.0292 47.8681 30.0099 46.5778 28.6083 45.9327Z" fill="#124C5F"/>
<path d="M38.419 31.8686C26.3148 30.9654 22.4924 22.0626 22.365 21.6755C21.8553 20.3853 20.4538 19.8692 19.1796 20.3853C17.9055 20.9014 17.3959 22.3207 17.9055 23.6109C18.1603 24.127 23.002 35.7394 38.1641 36.9006C39.5657 37.0296 40.7124 35.9974 40.7124 34.5781C40.7124 33.1589 39.8205 31.9976 38.419 31.8686Z" fill="#124C5F"/>
<path d="M60.2066 15.0956C57.6583 15.6117 55.7472 17.9341 55.7472 20.6437H67.0869C67.0869 17.6761 64.9209 15.3536 62.1178 14.9665C58.2954 10.7087 52.1796 12.386 47.3379 16.6439C47.5927 16.9019 47.8475 17.289 48.1024 17.6761C51.5425 14.4504 56.2568 12.257 60.2066 15.0956Z" fill="#124C5F"/>
<path d="M79.5735 45.6746H43.7704C42.7511 45.6746 41.8593 46.5777 41.8593 47.6099C41.8593 48.6422 42.7511 49.5453 43.7704 49.5453H44.1527V52.771C44.1527 57.803 48.2299 61.9318 53.199 61.9318H70.3998C75.3689 61.9318 79.4461 57.803 79.4461 52.771V49.5453H79.8283C80.8476 49.5453 81.7395 48.6422 81.7395 47.6099C81.4847 46.4487 80.5928 45.6746 79.5735 45.6746Z" fill="#124C5F"/>
<path d="M56.7665 23.2239L56.8939 22.0626C56.8939 21.6755 56.7665 21.4175 56.3843 21.4175C56.002 21.4175 55.7472 21.5465 55.7472 21.9336L55.6198 23.0948C55.6198 23.4819 55.7472 23.74 56.1294 23.74C56.3843 23.74 56.6391 23.4819 56.7665 23.2239Z" fill="#124C5F"/>
<path d="M55.2375 24.7724L55.1101 25.9337C55.1101 26.3207 55.2375 26.5788 55.6198 26.5788C56.002 26.5788 56.2569 26.4498 56.2569 26.0627L56.3843 24.9015C56.3843 24.5144 56.2569 24.2563 55.8746 24.2563C55.6198 24.2563 55.3649 24.5144 55.2375 24.7724Z" fill="#124C5F"/>
<path d="M59.5695 23.7401C59.9517 23.7401 60.2065 23.4821 60.2065 23.095V21.8048C60.2065 21.4177 59.9517 21.1597 59.5695 21.1597C59.1872 21.1597 58.9324 21.4177 58.9324 21.8048V23.095C58.9324 23.353 59.3146 23.7401 59.5695 23.7401Z" fill="#124C5F"/>
<path d="M58.8051 26.0623C58.8051 26.4494 59.0599 26.7074 59.4421 26.7074C59.8244 26.7074 60.0792 26.4494 60.0792 26.0623V24.7721C60.0792 24.385 59.8244 24.127 59.4421 24.127C59.0599 24.127 58.8051 24.385 58.8051 24.7721V26.0623Z" fill="#124C5F"/>
<path d="M63.0098 21.2888C62.6275 21.2888 62.3727 21.5469 62.3727 21.9339V23.2242C62.3727 23.6113 62.6275 23.8693 63.0098 23.8693C63.392 23.8693 63.6469 23.6113 63.6469 23.2242V21.9339C63.6469 21.5469 63.392 21.2888 63.0098 21.2888Z" fill="#124C5F"/>
<path d="M62.6276 24.9015V26.1917C62.6276 26.5788 62.8824 26.8369 63.2646 26.8369C63.6469 26.8369 63.9017 26.5788 63.9017 26.1917V24.9015C63.9017 24.5144 63.6469 24.2563 63.2646 24.2563C62.755 24.2563 62.5001 24.5144 62.6276 24.9015Z" fill="#124C5F"/>
<path d="M66.3224 21.2887C65.9402 21.2887 65.8127 21.6758 65.8127 21.9338L65.9402 23.095C65.9402 23.3531 66.195 23.6111 66.5773 23.6111C66.9595 23.6111 67.2144 23.2241 67.2144 22.837L66.9595 21.8048C66.9595 21.4177 66.5773 21.1597 66.3224 21.2887Z" fill="#124C5F"/>
<path d="M66.1952 25.0305L66.3226 26.1917C66.3226 26.4497 66.7049 26.7078 66.9597 26.7078C67.342 26.7078 67.5968 26.3207 67.4694 26.0627V24.7724C67.4694 24.3854 67.0871 24.2563 66.8323 24.2563C66.45 24.3854 66.1952 24.6434 66.1952 25.0305Z" fill="#124C5F"/>
</svg>
