<svg width="65" height="65" viewBox="0 0 65 65" fill="none" xmlns="http://www.w3.org/2000/svg">
<path d="M45.8776 28.9188L51.9216 22.7982C52.6403 23.0367 53.3934 23.1982 54.1906 23.1982H56.6435C60.7081 23.1982 64.0024 19.8622 64.0024 15.7462C64.0024 11.6302 60.7081 8.29415 56.6435 8.29415H55.839V7.47691C55.839 3.36092 52.5447 0.0249023 48.4801 0.0249023C44.4156 0.0249023 41.1213 3.36092 41.1213 7.47691V9.96091C41.1213 10.7682 41.2807 11.5308 41.5162 12.2586L35.4722 18.3792L45.8776 28.9188Z" fill="#124C5F"/>
<path d="M18.1249 35.9436L12.0808 42.0642C11.3621 41.8257 10.609 41.6643 9.81181 41.6643H7.35886C3.29432 41.6643 0 45.0003 0 49.1163C0 53.2323 3.29432 56.5683 7.35886 56.5683H8.16343V57.383C8.16343 61.499 11.4577 64.835 15.5223 64.835C19.5868 64.835 22.8811 61.499 22.8811 57.383V54.899C22.8811 54.0917 22.7217 53.3291 22.4862 52.6013L28.5303 46.4807L18.1249 35.9436Z" fill="#124C5F"/>
<path d="M56.6436 41.6643H54.1906C53.3934 41.6643 52.6403 41.8257 51.9216 42.0642L22.4887 12.2586C22.7241 11.5308 22.8836 10.7682 22.8836 9.96092V7.47692C22.8836 3.36092 19.5893 0.0249023 15.5247 0.0249023C11.4602 0.0249023 8.16588 3.36092 8.16588 7.47692V8.29167H7.35886C3.29431 8.29167 0 11.6277 0 15.7437C0 19.8597 3.29431 23.1957 7.35886 23.1957H9.81181C10.609 23.1957 11.3621 23.0342 12.0808 22.7958L41.5138 52.6014C41.2783 53.3292 41.1188 54.0918 41.1188 54.8991V57.3831C41.1188 61.4991 44.4131 64.8351 48.4777 64.8351C52.5422 64.8351 55.8365 61.4991 55.8365 57.3831V56.5683H56.6411C60.7057 56.5683 64 53.2323 64 49.1163C64 45.0003 60.7081 41.6643 56.6436 41.6643Z" fill="#124C5F"/>
</svg>
