<svg width="107" height="75" viewBox="0 0 107 75" fill="none" xmlns="http://www.w3.org/2000/svg">
<path d="M74.8758 46.3164C72.3758 45.9093 69.9029 47.2563 68.8582 49.592C68.6556 50.045 68.5179 50.5146 68.4387 50.9891C71.0187 49.7159 73.2738 48.1812 75.2206 46.3724L74.8758 46.3164Z" fill="#124C5F"/>
<path d="M77.1952 23.6907C81.8825 20.6022 83.2101 14.2508 80.1604 9.50462C77.1108 4.7584 70.8387 3.4146 66.1514 6.50315C61.4641 9.5917 60.1365 15.943 63.1862 20.6893C66.2358 25.4355 72.5079 26.7793 77.1952 23.6907Z" fill="#124C5F"/>
<path d="M95.7811 26.2794C91.4019 20.7882 85.454 20.7253 82.1686 22.9652C78.8841 25.2037 79.124 30.8914 81.867 34.7102C81.9917 34.9208 82.124 35.14 82.2537 35.357C83.1989 32.4525 83.3321 30.3444 83.3335 30.3152C83.4298 27.8511 85.4036 25.9275 87.8279 25.9275C87.8842 25.9275 87.9405 25.9284 87.9967 25.9307C90.4769 26.0228 92.4205 28.141 92.3291 30.653V30.6607L92.3264 30.7013C92.2526 32.1079 91.7773 37.1643 88.7624 43.1734C88.4878 43.7249 88.1642 44.3293 87.7928 44.9693C88.4248 46.1918 89.0325 47.4407 89.5866 48.7093L85.7475 48.0848C83.1507 51.6073 79.1784 55.6035 73.2625 58.7345L90.426 73.121C91.4757 74.0012 92.7469 74.4301 94.0108 74.4301C95.629 74.4301 97.235 73.7263 98.3482 72.3657C100.329 69.9412 99.9951 66.3498 97.6014 64.3438L93.4742 60.8828L94.8093 61.1007C95.223 61.1677 95.6321 61.1841 96.0341 61.1604C97.0036 61.2073 98.1438 60.8641 99.5459 60.3695C103.441 58.9948 107.857 56.5712 106.709 49.1856C104.392 39.2643 101.757 33.866 95.7811 26.2794Z" fill="#124C5F"/>
<path d="M87.9604 42.7599C91.2012 36.301 91.4105 30.9551 91.4299 30.6192C91.5028 28.6063 89.9522 26.9152 87.9644 26.8418C85.9799 26.767 84.3122 28.3337 84.2343 30.342L84.2338 30.3416C84.228 30.5736 83.9278 34.97 81.2977 39.9243C78.6397 44.8859 73.8613 50.4605 64.1877 53.7219C62.299 54.3528 61.2728 56.4144 61.8971 58.3275C62.3963 59.86 63.8042 60.8318 65.3162 60.8318C65.6902 60.8318 66.0706 60.7721 66.4451 60.6472C78.2724 56.7276 84.7501 49.2098 87.9604 42.7599Z" fill="#124C5F"/>
<path d="M40.5335 60.1043C42.1701 60.4188 44.1398 60.9385 44.6606 61.4968C46.0627 62.9951 46.7478 66.0896 48.5658 66.3066C49.8361 66.4579 50.2821 66.4301 51.8557 65.4018C53.4091 64.3844 51.9341 60.4234 51.5632 58.9014C51.0374 56.7418 52.291 54.3697 52.3104 54.2248C52.3261 54.1044 53.406 51.8112 56.5275 52.6818C57.6177 52.9881 56.9794 50.9474 55.2721 49.9278C53.2421 48.7171 51.7734 49.2814 50.2893 50.4602C47.4239 48.2394 42.9349 48.6729 40.3827 49.6402C39.9749 51.3235 39.8169 52.9521 39.8169 54.4504C39.8155 56.7281 40.1756 58.7031 40.5335 60.1043ZM47.8092 55.3132C48.4763 54.8524 49.3864 55.027 49.8419 55.7025C50.2965 56.3785 50.1241 57.3006 49.4571 57.7605C48.7882 58.2214 47.879 58.0472 47.4234 57.3713C46.9693 56.6957 47.1408 55.7736 47.8092 55.3132Z" fill="#124C5F"/>
<path d="M38.543 49.5886C37.8786 49.5982 37.2458 49.5786 36.6422 49.5312C36.4306 49.4778 36.2119 49.4446 35.9827 49.4564C35.9688 49.4573 35.9562 49.4619 35.9422 49.4628C26.7603 48.4067 24.2607 41.3729 13.5335 48.6724C10.2935 47.7084 6.43062 45.6357 3.50485 41.2129C2.91339 40.3236 1.72282 40.0907 0.847342 40.6897C-0.0326414 41.2872 -0.264903 42.492 0.328804 43.3817C3.11189 47.5461 6.55125 49.9856 9.77861 51.4146C9.7408 51.4948 9.70119 51.5901 9.66158 51.6813C8.83426 52.9416 8.18653 54.6021 7.76522 56.8151C7.70626 57.1383 5.07936 74.1148 9.20515 74.1148C13.3309 74.1148 14.4639 61.2726 16.7676 59.6285C17.0921 59.6576 23.2124 66.1517 28.4401 65.3353C29.6649 65.1429 31.3231 64.3772 32.705 63.5626L34.9664 72.73C35.2202 73.7588 36.1281 74.4567 37.1463 74.4567C37.2575 74.4567 37.3705 74.4485 37.4834 74.4311C38.6317 74.2566 39.4586 73.2328 39.3978 72.0582L38.8108 60.6436C38.4156 59.1207 38.0168 56.9674 38.015 54.4504C38.0155 52.9375 38.1627 51.2956 38.543 49.5886Z" fill="#124C5F"/>
<path d="M58.626 72.0083H58.058L56.8985 68.37H43.9084L42.7489 72.0083H42.18C41.7226 72.0083 41.3508 72.3844 41.3508 72.8484C41.3508 73.3119 41.7226 73.688 42.18 73.688H58.626C59.0833 73.688 59.4551 73.3119 59.4551 72.8484C59.4551 72.3844 59.0829 72.0083 58.626 72.0083Z" fill="#124C5F"/>
</svg>
