<svg width="87" height="95" viewBox="0 0 87 95" fill="none" xmlns="http://www.w3.org/2000/svg">
<path d="M56.8033 28.2846C56.5756 27.1971 55.9536 26.3804 55.0984 26.0431C55.0372 26.0189 54.9731 26.0162 54.9111 25.9973C55.524 22.9623 57.2522 11.9288 51.5901 5.47182C48.3083 1.72981 43.1874 0.248843 36.3775 1.06561C36.2523 1.01055 36.1164 0.978431 35.9754 0.973842C30.6262 0.785709 26.5328 2.39115 23.8492 5.73911C18.5916 12.2963 20.4953 23.3609 21.0435 25.9836C20.9629 26.0062 20.88 26.0118 20.8008 26.0431C19.9449 26.3804 19.3236 27.1971 19.0953 28.2846C18.892 29.2534 19.0053 30.3725 19.4142 31.4347C20.163 33.3832 21.6781 34.6278 23.1332 34.6278C23.2889 34.6278 23.4438 34.613 23.597 34.5838C24.8312 38.5615 26.8898 41.8691 30.2915 43.8993V47.9772H28.5244V59.4785H47.3744V47.9772H45.6065V43.9248C49.0142 41.8972 51.0747 38.5795 52.308 34.5856C52.4593 34.6139 52.6121 34.6278 52.7659 34.6278C54.2193 34.6278 55.735 33.3832 56.4849 31.4353C56.8927 30.3725 57.006 29.2534 56.8033 28.2846ZM21.0353 30.7952C20.7526 30.0599 20.666 29.2781 20.7974 28.6506C20.9016 28.155 21.1327 27.8028 21.4317 27.6847C21.5127 27.6531 21.6011 27.6376 21.6951 27.6376C21.8649 27.6376 22.053 27.6896 22.2472 27.7864C22.4465 29.5418 22.7296 31.2439 23.1238 32.8603C22.458 32.8468 21.5258 32.0712 21.0353 30.7952ZM46.6048 49.7392C44.8747 51.5811 41.6505 52.8227 37.9494 52.8227C34.2482 52.8227 31.024 51.5811 29.2939 49.7392H31.1615C31.6418 49.7392 32.0315 49.3446 32.0315 48.8582V44.779C33.7268 45.4852 35.6972 45.9262 37.9935 46.0437C40.2526 45.9274 42.1933 45.4928 43.8671 44.7993V48.8582C43.8671 49.3446 44.2568 49.7392 44.7371 49.7392H46.6048ZM51.9458 26.8535C51.8885 27.3952 51.8308 27.9363 51.7598 28.457C51.5787 29.7842 51.3473 31.0372 51.0651 32.2204C50.9586 32.6668 50.8386 33.0955 50.7162 33.5204C49.6496 37.2211 47.9699 40.104 45.3758 41.9476C44.9927 42.2199 44.5779 42.4568 44.1543 42.6838C42.4494 43.5971 40.4278 44.1578 37.9935 44.284C35.5646 44.159 33.5433 43.6089 31.8369 42.7115C31.3839 42.4732 30.9449 42.2193 30.5376 41.9301C27.938 40.0848 26.2543 37.2069 25.186 33.5139C25.063 33.0888 24.9426 32.6599 24.8358 32.2132C24.5533 31.0327 24.3214 29.7828 24.1402 28.4589C24.0689 27.9381 24.0108 27.3967 23.9534 26.8549C23.7998 25.4049 23.6903 23.8854 23.6237 22.2937C23.8273 21.0015 24.1254 19.9289 24.4807 19.0501C25.016 18.9583 26.1709 18.7054 27.5308 18.071C27.7449 18.371 28.1097 18.5614 28.4801 18.5327C28.6727 18.523 31.2362 18.3744 33.9459 17.2978C33.9323 17.4223 33.9397 17.5502 33.9691 17.6769C34.0853 18.1702 34.5157 18.5224 35.0164 18.5339C35.2492 18.5413 39.8547 18.5987 42.6969 15.3069C43.7935 17.9672 46.2556 22.3246 51.2774 25.06L52.026 26.1047C52.0025 26.3591 51.9722 26.6033 51.9458 26.8535ZM54.8627 30.7952C54.3738 32.0689 53.4441 32.8424 52.7799 32.8594C53.1722 31.2431 53.454 29.541 53.6525 27.7857C53.8463 27.6892 54.034 27.6376 54.2034 27.6376C54.2975 27.6376 54.3858 27.6531 54.4663 27.6847C54.8763 27.8464 55.0406 28.3592 55.1018 28.6506C55.2332 29.2781 55.1459 30.0599 54.8627 30.7952ZM35.9754 33.0889V30.6191C35.9754 30.1327 36.365 29.7381 36.8454 29.7381C37.3257 29.7381 37.7154 30.1327 37.7154 30.6191V32.8893H39.0532C39.5335 32.8893 39.9232 33.2839 39.9232 33.7703C39.9232 34.2567 39.5335 34.6513 39.0532 34.6513H37.5183C36.6675 34.6513 35.9754 33.9504 35.9754 33.0889ZM31.8181 27.4234C31.8181 28.371 31.0595 29.1391 30.1238 29.1391C29.1881 29.1391 28.4296 28.371 28.4296 27.4234C28.4296 26.4759 29.1881 25.7078 30.1238 25.7078C31.0595 25.7078 31.8181 26.4759 31.8181 27.4234ZM47.4691 27.4234C47.4691 28.371 46.7105 29.1391 45.7749 29.1391C44.8392 29.1391 44.0806 28.371 44.0806 27.4234C44.0806 26.4759 44.8392 25.7078 45.7749 25.7078C46.7105 25.7078 47.4691 26.4759 47.4691 27.4234ZM42.2081 38.5161C42.2081 39.9386 40.0082 40.4456 37.9493 40.4456C35.891 40.4456 33.691 39.9386 33.691 38.5161C33.691 38.0297 34.0807 37.6351 34.561 37.6351C34.949 37.6351 35.2775 37.892 35.3897 38.2477C35.6808 38.422 36.5961 38.6836 37.9493 38.6836C39.303 38.6836 40.2183 38.422 40.5094 38.2471C40.6216 37.892 40.9501 37.6351 41.3381 37.6351C41.8184 37.6351 42.2081 38.0297 42.2081 38.5161ZM85.8531 65.9955C85.6027 65.5488 85.214 65.2176 84.751 65.027C84.8237 64.5423 84.7519 64.0324 84.4949 63.5739C84.2446 63.1274 83.8562 62.7963 83.3926 62.6055C83.4651 62.1209 83.3934 61.6109 83.1366 61.1522C82.8795 60.6935 82.4832 60.3707 82.0344 60.1864C82.1073 59.7015 82.036 59.1914 81.7795 58.7329C81.4838 58.2064 81.0047 57.8289 80.4281 57.6683C79.8571 57.5089 79.2522 57.5846 78.7322 57.8829L77.8505 58.3902C77.6825 58.1124 77.4605 57.8613 77.1882 57.653V56.6898H82.1182C82.5985 56.6898 82.9882 56.2952 82.9882 55.8082C82.9882 55.3218 82.5985 54.9272 82.1182 54.9272H77.1882V54.0462H82.1182C82.5985 54.0462 82.9882 53.6516 82.9882 53.1652C82.9882 52.6788 82.5985 52.2842 82.1182 52.2842H77.1882V51.4032H82.1182C82.5985 51.4032 82.9882 51.0086 82.9882 50.5222C82.9882 50.0358 82.5985 49.6412 82.1182 49.6412H77.1882V48.7601H82.1182C82.5985 48.7601 82.9882 48.3655 82.9882 47.8791C82.9882 47.3927 82.5985 46.9981 82.1182 46.9981H77.1882L77.1939 46.1171H82.1182C82.5985 46.1171 82.9882 45.7225 82.9882 45.2361C82.9882 44.7497 82.5985 44.3551 82.1182 44.3551H77.1939C76.2151 44.3551 75.4482 45.2579 75.4482 46.4108V47.8791V50.5222V50.6552C75.3738 49.6543 75.0077 48.649 74.3618 47.7833C72.7725 45.6514 70.0504 45.0072 68.2968 46.3494C67.3827 47.0485 66.9195 48.1521 66.8996 49.3486C65.7578 49.0403 64.5828 49.1895 63.6681 49.8889C62.7868 50.5623 62.2702 51.655 62.2509 52.8859C62.234 54.0256 62.6304 55.1985 63.369 56.1897C64.1076 57.1797 65.1136 57.8875 66.2011 58.1823C66.5647 58.2809 66.9283 58.3291 67.284 58.3291C68.077 58.3291 68.8269 58.0882 69.4352 57.6225C69.493 57.5783 69.5342 57.5201 69.5884 57.4728L72.317 60.7868L71.3311 62.9375C71.2557 63.0694 71.1872 63.2041 71.1263 63.3448L65.39 66.6402L55.6025 50.3616C55.3623 49.9625 55.0701 49.6198 54.7559 49.3055C54.2377 48.6284 53.4897 48.1462 52.6223 47.9908C51.7772 47.7073 50.8765 47.6168 49.9844 47.7681V59.5751C50.1969 59.642 50.3937 59.7398 50.5649 59.8698C50.8857 60.1135 51.1205 60.4566 51.2151 60.8609L51.4344 61.7914L55.4944 79.0211V71.6419L58.7551 77.0655C59.7905 78.7874 61.6041 79.7441 63.4665 79.7441C64.3886 79.7441 65.3231 79.509 66.1807 79.0157L76.6263 73.0138C76.6694 72.989 76.7027 72.9545 76.7449 72.9287C76.8271 72.9338 76.9085 72.945 76.9911 72.945C77.6708 72.945 78.3595 72.7717 78.9916 72.4081L80.9554 71.2786L81.0753 71.4243C81.4719 71.9056 82.1714 71.9871 82.6654 71.6093L83.0247 71.3345L83.4035 71.0449L83.7624 70.7705C84.123 70.4948 84.2601 70.025 84.1616 69.5713L85.0148 69.0802C85.5336 68.7819 85.9063 68.2967 86.0649 67.7128C86.2235 67.13 86.1476 66.5198 85.8531 65.9955ZM80.7911 61.9264L80.9503 61.8348C81.025 61.7924 81.1089 61.7694 81.1927 61.7694C81.2369 61.7694 81.2811 61.7763 81.3252 61.7878C81.4533 61.8233 81.5597 61.9071 81.6243 62.0229C81.7591 62.2627 81.6753 62.5701 81.4385 62.7066L81.2799 62.7978L80.1334 63.4575L79.1616 64.0167C79.0472 64.0809 78.9146 64.097 78.7866 64.0637C78.6597 64.0282 78.5533 63.9444 78.4887 63.8285C78.3539 63.5876 78.4366 63.2814 78.6733 63.1448L79.5702 62.6288L80.7911 61.9264ZM77.998 60.5547L78.0197 60.5075C78.0358 60.4724 78.0413 60.4353 78.0553 60.3997C78.0715 60.3585 78.0831 60.3165 78.0966 60.2747L79.1825 59.6499L79.592 59.4143C79.6679 59.3719 79.7506 59.3489 79.8356 59.3489C79.8798 59.3489 79.924 59.3547 79.967 59.3673C80.095 59.4028 80.2015 59.4866 80.2661 59.6024C80.35 59.7517 80.3409 59.9234 80.2712 60.0676C80.2289 60.155 80.1696 60.2347 80.0803 60.2861L79.4553 60.6457L78.569 61.1556L77.8033 61.5962C77.7086 61.6503 77.6018 61.6621 77.4947 61.648L77.998 60.5547ZM68.0374 55.748C67.6171 56.0669 67.0824 55.9895 66.8003 55.9126C66.2181 55.7549 65.6426 55.3396 65.22 54.7735C64.7986 54.2074 64.5619 53.5329 64.5709 52.9226C64.5755 52.6278 64.6457 52.0846 65.066 51.7634C65.2767 51.6028 65.5361 51.5265 65.817 51.5265C66.499 51.5265 67.3124 51.9733 67.8822 52.7379C68.6876 53.8179 68.7578 55.1962 68.0374 55.748ZM69.8487 51.234C69.0444 50.1545 68.9731 48.7756 69.6947 48.2238C69.9054 48.0632 70.1636 47.987 70.4457 47.987C71.1277 47.987 71.9399 48.4344 72.5108 49.1989C72.9334 49.765 73.1701 50.4396 73.1611 51.0493C73.1565 51.3447 73.0863 51.8873 72.666 52.2085C72.2458 52.5274 71.7111 52.45 71.429 52.3731C70.8467 52.2154 70.2713 51.8001 69.8487 51.234ZM72.0889 58.3121C71.692 57.7799 71.7964 57.0227 72.3219 56.6209C72.8474 56.2191 73.5951 56.3247 73.992 56.8569C74.1307 57.0429 74.187 57.2569 74.2066 57.4732C73.8805 57.6873 73.6065 57.9765 73.4352 58.3475L73.246 58.7602C72.8194 58.8357 72.3678 58.6862 72.0889 58.3121ZM78.9277 70.4178L78.1318 70.8755C77.0206 71.5179 75.5966 71.1198 74.9622 69.9922L72.8122 66.1607C72.5054 65.6139 72.4271 64.9789 72.5922 64.3723L72.6019 64.3511L72.8875 63.728L75.0132 59.0897C75.0744 58.9572 75.2415 58.8707 75.4482 58.8509C75.6012 58.8362 75.7735 58.8539 75.9523 58.9382C76.1314 59.0228 76.2558 59.1454 76.343 59.2737C76.3627 59.3027 76.386 59.3298 76.4009 59.3593C76.4744 59.5054 76.492 59.6536 76.4417 59.7642L74.6613 63.6341L74.3063 64.4056C74.2724 64.4793 74.2648 64.5566 74.2521 64.6332C74.1889 65.0139 74.3647 65.4047 74.7277 65.5757C74.8467 65.6319 74.9713 65.6583 75.0936 65.6583C75.2178 65.6583 75.3365 65.6236 75.4482 65.5728V69.7582C75.4482 70.2446 75.8379 70.6392 76.3182 70.6392C76.7985 70.6392 77.1882 70.2446 77.1882 69.7582V66.7032L79.2871 69.2524L79.8229 69.9032L78.9277 70.4178ZM80.5198 66.4372C80.4043 66.5014 80.2695 66.5209 80.1449 66.4842C80.018 66.4486 79.9115 66.3649 79.8469 66.249C79.7121 66.0081 79.7948 65.7018 80.0316 65.5653L81.1346 64.9307L82.1491 64.347L82.3085 64.2553C82.3833 64.2128 82.4671 64.1899 82.5509 64.1899C82.5951 64.1899 82.6393 64.1968 82.6835 64.2083C82.8104 64.2438 82.9168 64.3276 82.9814 64.4434C83.1162 64.6843 83.0335 64.9906 82.7968 65.1271L82.638 65.2185L81.6977 65.7594L80.5198 66.4372ZM84.3872 67.2459C84.3521 67.3744 84.2694 67.4822 84.155 67.5476C84.155 67.5476 84.155 67.5476 84.1539 67.5476L83.7459 67.7826L83.2621 68.0612L81.8792 68.8577C81.7758 68.9182 81.6606 68.9288 81.5514 68.9093C81.4104 68.8843 81.28 68.8046 81.204 68.6695C81.0692 68.4286 81.1531 68.1223 81.3898 67.9858L82.6989 67.2326L83.0517 67.0296L83.6668 66.6758C83.7415 66.6333 83.8254 66.6104 83.9092 66.6104C83.9224 66.6104 83.9353 66.6148 83.9486 66.6159C83.9794 66.6186 84.0104 66.6207 84.0406 66.6287C84.1686 66.6643 84.274 66.748 84.3408 66.8662C84.4054 66.9821 84.4224 67.1163 84.3872 67.2459ZM55.3245 92.7503L54.8401 81.3387C54.8378 81.3088 54.8344 81.279 54.8265 81.2492L50.0868 61.1327C50.0693 61.0573 50.0324 60.9893 49.9844 60.9277C49.8551 60.7617 49.6311 60.6532 49.3799 60.6532H26.5186C26.2674 60.6532 26.0436 60.7623 25.9144 60.9278C25.8664 60.9891 25.8294 61.0568 25.8118 61.1316L21.649 78.8014L21.1233 78.5014L21.0013 78.4318C20.8651 78.3561 20.728 78.2941 20.591 78.2314L24.4644 61.7898L24.6268 61.1005L24.6835 60.8597C24.7784 60.4555 25.0134 60.1127 25.3343 59.8693C25.5053 59.7395 25.702 59.6418 25.9144 59.5751V47.9287V47.8111C23.8846 47.1455 21.5688 47.7088 20.0735 49.4364L1.3685 71.0212C0.330844 72.2188 -0.151734 73.8076 0.0419769 75.3884C0.235688 76.9703 1.08813 78.3916 2.3835 79.2956L13.1135 86.7842C13.4484 87.0181 13.8035 87.1939 14.1652 87.3434C14.6046 87.8542 15.1276 88.2905 15.7173 88.6231L19.498 90.7559L20.0649 91.0758L20.4044 91.2673L20.6037 91.3797C20.6134 91.3852 20.624 91.3866 20.6338 91.3919L20.5751 92.7516L20.5204 94.0147C20.513 94.1868 20.5974 94.3141 20.6699 94.3909C20.8081 94.5378 21.016 94.6215 21.2392 94.6215H54.6588C54.882 94.6215 55.0904 94.5378 55.2286 94.3909C55.3011 94.3141 55.3861 94.1868 55.3782 94.0147L55.3245 92.7503ZM13.7371 73.6665L20.4044 65.9729V78.1446C20.1854 78.0536 19.9661 77.9824 19.747 77.9224C19.6188 77.8144 19.5067 77.6932 19.3666 77.5955L13.7371 73.6665ZM26.7933 84.101C26.7146 84.2444 26.5288 84.2983 26.3906 84.218C26.3901 84.218 26.3901 84.218 26.3901 84.218L22.4354 81.9868C22.2161 81.8633 21.9579 81.8708 21.726 81.9621C21.5142 82.0454 21.3239 82.1977 21.212 82.3998C21.0987 82.604 21.0704 82.8449 21.1332 83.0709C21.1961 83.2957 21.3451 83.4861 21.5467 83.6008L21.5501 83.6027L26.2841 86.2749C26.3759 86.3265 26.411 86.4102 26.4235 86.455C26.4365 86.4997 26.4501 86.5892 26.398 86.6832C26.3476 86.7762 26.2655 86.8106 26.2207 86.8243C26.176 86.837 26.0865 86.8507 25.9958 86.7991L21.3698 84.188L21.2584 84.1251C21.1626 84.071 21.0578 84.0472 20.9519 84.0384C20.7623 84.0226 20.5741 84.0819 20.4044 84.1831C20.3886 84.1925 20.3722 84.1999 20.357 84.2101C20.2274 84.2969 20.11 84.4021 20.0339 84.5392C19.9211 84.7434 19.8928 84.9855 19.9557 85.2103C20.0095 85.4027 20.1356 85.5603 20.2946 85.676C20.3214 85.6955 20.3401 85.7239 20.3692 85.7403L20.4044 85.7601L20.4455 85.7834L20.8662 86.0207L24.3238 87.9715C24.4161 88.0231 24.4513 88.1069 24.4637 88.1527C24.4767 88.1975 24.4903 88.2858 24.4382 88.3799C24.3873 88.4728 24.3057 88.5084 24.2609 88.521C24.2173 88.5336 24.129 88.5485 24.0361 88.4957L20.8372 86.6914L20.4044 86.4473L20.2652 86.3687L20.0248 86.2332L19.6982 86.0489L19.6391 86.0156C19.3632 85.8607 18.9418 85.9204 18.6728 86.0902C18.4117 86.2554 18.2565 86.5479 18.2638 86.8588C18.268 87.0232 18.3218 87.1763 18.4067 87.31C18.4829 87.43 18.5832 87.5351 18.7102 87.6067L19.6103 88.1146L20.1772 88.4345L20.4044 88.5627L20.7479 88.7565L21.7393 89.3159C21.8305 89.3676 21.865 89.4513 21.8781 89.4961C21.8905 89.5408 21.9041 89.6303 21.8531 89.7232C21.775 89.8654 21.5881 89.9216 21.4504 89.8402L20.7189 89.4274L20.4044 89.25L20.1487 89.1057L19.5818 88.7859L17.5107 87.6174L16.5646 87.0836C15.7547 86.627 15.1169 85.8963 14.7691 85.0256C14.2979 83.8486 14.3511 82.5615 14.9107 81.583C15.5921 80.3923 16.9033 79.5124 18.3624 79.5124C18.9537 79.5124 19.5696 79.6612 20.1773 79.9875C20.1948 79.9969 20.2123 80.0029 20.2298 80.0126L20.4044 80.1122L20.7036 80.283L21.2293 80.5831L21.5413 80.7613L26.6778 83.6938C26.7701 83.7454 26.8052 83.8303 26.8177 83.875C26.8307 83.9198 26.8443 84.0092 26.7933 84.101ZM48.303 79.7324C48.2781 81.2801 46.8035 81.9557 46.0516 80.7604L45.2953 79.5598C45.0941 80.2722 44.788 80.9412 44.3919 81.5507C44.395 81.6454 44.4043 81.7382 44.4043 81.8337C44.4043 85.8273 41.5146 89.0652 37.9494 89.0652C34.3841 89.0652 31.4944 85.8273 31.4944 81.8337C31.4944 81.7382 31.5037 81.6454 31.5068 81.5507C31.1101 80.9412 30.8039 80.2722 30.6028 79.5598L29.8471 80.7604C29.0952 81.9557 27.6206 81.2801 27.5951 79.7324C27.5833 79.0096 27.5579 78.2592 27.5106 77.5238C27.3461 74.9409 30.8182 73.7299 32.3829 73.3155C33.775 72.3025 35.7501 71.8467 37.9494 71.8467C40.148 71.8467 42.1237 72.3025 43.5158 73.3155C45.0805 73.7299 48.5526 74.9409 48.388 77.5238C48.3409 78.2592 48.3154 79.0096 48.303 79.7324ZM35.3042 85.096C35.3042 84.0079 36.4885 83.1259 37.9494 83.1259C39.4103 83.1259 40.5945 84.0079 40.5945 85.096C40.5945 86.184 39.4103 87.0661 37.9494 87.0661C36.4885 87.0661 35.3042 86.184 35.3042 85.096Z" fill="#124C5F"/>
</svg>