<?xml version="1.0" encoding="utf-8"?>
<svg height="40px" width="40px" version="1.1" fill="red" xmlns="http://www.w3.org/2000/svg" xmlns:xlink="http://www.w3.org/1999/xlink" x="0px" y="0px" viewBox="0 0 1000 1000" enable-background="new 0 0 1000 1000" xml:space="preserve">
<g><g transform="translate(0.000000,511.000000) scale(0.100000,-0.100000)"><path d="M4734.3,4992.7c-1279.7-98.1-2426.5-997.6-2829.3-2218c-198.3-605.1-214.6-1318.5-51.1-2203.7c243.3-1316.5,964.9-2862,1946.1-4166.2c511.1-680.8,1091.6-1240.9,1232.7-1191.8c163.5,59.3,623.5,502.9,969,938.3C7164.9-2387,7958.1-696.4,8189.1,822.5c212.6,1386-67.5,2400-887.2,3221.8c-468.1,466.1-1028.3,768.6-1657.9,895.4c-147.2,28.6-609.2,77.7-684.8,69.5C4942.8,5009.1,4840.6,5000.9,4734.3,4992.7z M5539.7,3635.4C6206.1,3435,6686.5,2954.6,6895,2282.1c51.1-169.7,55.2-208.5,55.2-539.7c0-333.2-4.1-370-57.3-539.7C6690.6,540.4,6202,51.8,5541.7-150.6c-171.7-53.2-208.5-57.2-541.7-57.2c-331.2,0-370,4.1-539.7,55.2C3902.3,19.1,3479.1,376.8,3227.6,883.8c-212.6,433.4-251.4,1020.1-98.1,1473.9c231,676.7,782.9,1167.3,1482.1,1316.5c89.9,20.4,231,26.6,439.5,22.5C5312.8,3690.6,5384.3,3682.4,5539.7,3635.4z"/><path d="M4836.5,2701.1c-504.9-83.8-868.8-580.6-797.3-1089.6c61.3-431.3,398.6-768.6,830-830c412.9-57.2,823.8,163.5,999.6,535.6c134.9,288.2,134.9,562.2,0,850.4c-132.9,280.1-408.9,484.5-725.7,535.6C4993.9,2725.7,4991.8,2725.7,4836.5,2701.1z"/></g></g>
</svg>