<svg width="65" height="72" viewBox="0 0 65 72" fill="none" xmlns="http://www.w3.org/2000/svg">
<path d="M13.0294 57.2247L15.4419 48.563L14.5646 46.0089C12.7004 45.6758 11.1652 44.6763 10.1783 43.3438L6.88849 55.0038L0.418615 66.6638C-0.458656 68.2184 0.0896385 70.2173 1.62486 71.1057C3.16009 71.9941 5.13395 71.4388 6.01122 69.8842L12.8101 57.891C12.9197 57.6689 13.0294 57.4468 13.0294 57.2247Z" fill="#124C5F"/>
<path d="M2.06362 33.3493C3.05055 33.9046 4.36646 33.4604 4.91475 32.3499L9.84941 22.1336L10.7267 21.4673L11.1653 18.6911C11.3846 17.2475 12.0426 15.9149 12.9199 14.8044L6.99827 18.6911C6.6693 18.9132 6.44998 19.2463 6.23066 19.5795L1.07669 30.3511C0.52839 31.4615 0.967026 32.7941 2.06362 33.3493Z" fill="#124C5F"/>
<path d="M20.4862 12.4724C23.7566 12.4724 26.4078 9.78771 26.4078 6.47595C26.4078 3.1642 23.7566 0.479492 20.4862 0.479492C17.2158 0.479492 14.5646 3.1642 14.5646 6.47595C14.5646 9.78771 17.2158 12.4724 20.4862 12.4724Z" fill="#124C5F"/>
<path d="M59.0865 57.2247C59.0865 57.2247 59.1962 57.3357 59.1962 57.4468C60.0734 56.8915 60.4024 55.67 60.4024 55.67C63.6922 56.6694 64.3501 53.5601 64.3501 53.5601C64.7888 52.6717 62.5956 51.7834 62.5956 51.7834C62.4859 49.5624 59.9638 48.8961 59.9638 48.8961C58.7575 47.7857 59.0865 48.8961 59.0865 48.8961C57.8802 48.7851 57.1126 49.2293 57.1126 49.2293C55.1388 47.3415 53.9325 50.2287 53.9325 50.2287C53.6035 50.2287 53.3842 50.3398 53.0552 50.3398C55.0291 53.0049 57.1126 55.3369 59.0865 57.2247Z" fill="#124C5F"/>
<path d="M61.8279 63.9988C61.2796 63.4436 57.3319 61.0005 57.3319 61.0005C58.2091 60.5563 58.3188 58.6685 58.3188 58.0022C56.2353 56.0034 54.0421 53.4493 51.8489 50.5621C50.7523 50.7842 43.5147 53.8935 36.4965 50.6731C33.8647 49.4516 31.5618 51.2284 31.5618 51.2284C29.588 53.5604 30.4652 57.336 30.4652 57.336L33.2067 54.3377C34.6323 53.2272 35.1806 53.4493 35.5096 54.0045C35.7289 54.4487 35.6192 55.004 35.2903 55.4482C32.6584 58.2243 33.5357 61.1116 33.5357 61.1116L29.8073 64.443C28.3817 65.9976 30.0266 67.2191 30.0266 67.2191C30.3556 65.9976 32.9874 64.1098 32.9874 64.1098C32.8778 65.5534 33.5357 65.8866 33.5357 65.8866C35.3999 65.3314 34.9613 63.4436 34.9613 63.4436C37.9221 63.3325 38.2511 61.9999 38.2511 61.9999C41.2119 62.5552 42.6375 60.5563 42.6375 60.5563C43.4051 61.9999 50.0943 63.5546 50.0943 63.5546C50.533 63.7767 53.0551 68.8849 53.0551 68.8849C53.6034 68.9959 54.1517 69.7732 54.1517 69.7732C55.358 70.5506 57.8802 69.6622 57.8802 69.6622C57.6608 68.6628 56.3449 68.6628 56.3449 68.6628C53.3841 68.6628 53.8228 63.6656 53.8228 63.6656C53.9324 62.9994 56.2353 64.2209 56.2353 64.2209L61.2796 66.1087C63.8018 67.4412 64.8984 65.8866 64.8984 65.8866C65.666 64.6651 61.8279 63.9988 61.8279 63.9988Z" fill="#124C5F"/>
<path d="M37.0447 24.4652C39.5669 30.1286 44.9402 41.3444 51.8487 50.4503C52.1777 50.3393 52.6164 50.3393 53.055 50.2282C52.9453 50.1172 52.8357 50.0061 52.726 49.784C45.8175 40.7892 40.4442 29.5734 38.0317 24.021C37.593 24.3541 37.1544 24.4652 37.0447 24.4652Z" fill="#124C5F"/>
<path d="M36.9352 23.3553C38.0318 22.9112 38.6897 21.6896 38.2511 20.5792C37.8125 19.4687 36.6062 18.8024 35.5096 19.2466L29.588 21.3565C22.6794 14.8047 22.3504 13.6942 19.6089 13.25C16.0998 12.6948 12.81 15.2489 12.2618 18.8024L9.62992 37.4584C9.08162 41.0119 11.6038 44.3433 15.1129 44.8986C15.2226 44.8986 15.3322 44.8986 15.4419 44.8986L18.293 53.5603L12.4811 62.222C11.4941 63.6656 11.8231 65.7755 13.3583 66.775C14.7839 67.7744 16.8675 67.4413 17.8544 65.8866L24.6533 55.8923C25.2016 55.0039 25.4209 54.0045 25.0919 53.0051L21.4732 42.0113C22.0215 41.234 22.4601 40.2346 22.5698 39.2352L24.9823 22.6891L27.7238 25.3542C28.2721 25.9094 29.1493 26.1315 29.917 25.7984L36.9352 23.3553Z" fill="#124C5F"/>
</svg>
